<mxfile host="app.diagrams.net" modified="2022-03-25T10:32:47.064Z" agent="5.0 (Windows NT 10.0; Win64; x64) AppleWebKit/537.36 (KHTML, like Gecko) Chrome/99.0.4844.82 Safari/537.36" etag="l96LAo9qmvwKbJVo8kVH" version="17.2.2" type="github">
  <diagram id="6qmupNBL3rkHqf9W9P1w" name="Page-1">
    <mxGraphModel dx="1995" dy="1971" grid="1" gridSize="10" guides="1" tooltips="1" connect="1" arrows="1" fold="1" page="1" pageScale="1" pageWidth="827" pageHeight="1169" math="0" shadow="0">
      <root>
        <mxCell id="0" />
        <mxCell id="1" parent="0" />
        <mxCell id="WquU7Fkmp-02zfPLn8dz-1" value="" style="rounded=0;whiteSpace=wrap;html=1;fillColor=#dae8fc;strokeColor=#6c8ebf;" vertex="1" parent="1">
          <mxGeometry x="30" y="210" width="500" height="330" as="geometry" />
        </mxCell>
        <mxCell id="WquU7Fkmp-02zfPLn8dz-5" value="" style="strokeColor=#dddddd;shadow=1;strokeWidth=1;rounded=1;absoluteArcSize=1;arcSize=2;" vertex="1" parent="1">
          <mxGeometry x="540" y="105" width="170" height="60" as="geometry" />
        </mxCell>
        <mxCell id="WquU7Fkmp-02zfPLn8dz-6" value="Cloud&lt;br&gt;Storage&lt;br&gt;&lt;div style=&quot;color: rgb(212 , 212 , 212) ; background-color: rgb(30 , 30 , 30) ; font-family: &amp;#34;consolas&amp;#34; , &amp;#34;courier new&amp;#34; , monospace ; font-size: 14px ; line-height: 19px&quot;&gt;&lt;span style=&quot;color: #ce9178&quot;&gt;task1_bucket&lt;/span&gt;&lt;/div&gt;" style="sketch=0;dashed=0;connectable=0;html=1;fillColor=#5184F3;strokeColor=none;shape=mxgraph.gcp2.hexIcon;prIcon=cloud_storage;part=1;labelPosition=right;verticalLabelPosition=middle;align=left;verticalAlign=middle;spacingLeft=5;fontColor=#999999;fontSize=12;" vertex="1" parent="WquU7Fkmp-02zfPLn8dz-5">
          <mxGeometry y="0.5" width="44" height="39" relative="1" as="geometry">
            <mxPoint x="5" y="-19.5" as="offset" />
          </mxGeometry>
        </mxCell>
        <mxCell id="WquU7Fkmp-02zfPLn8dz-16" style="edgeStyle=orthogonalEdgeStyle;rounded=0;orthogonalLoop=1;jettySize=auto;html=1;" edge="1" parent="1" source="WquU7Fkmp-02zfPLn8dz-18" target="WquU7Fkmp-02zfPLn8dz-20">
          <mxGeometry relative="1" as="geometry" />
        </mxCell>
        <mxCell id="WquU7Fkmp-02zfPLn8dz-17" style="edgeStyle=orthogonalEdgeStyle;rounded=0;orthogonalLoop=1;jettySize=auto;html=1;entryX=0.5;entryY=0;entryDx=0;entryDy=0;" edge="1" parent="1" source="WquU7Fkmp-02zfPLn8dz-18" target="WquU7Fkmp-02zfPLn8dz-23">
          <mxGeometry relative="1" as="geometry" />
        </mxCell>
        <mxCell id="WquU7Fkmp-02zfPLn8dz-18" value="" style="dashed=0;outlineConnect=0;html=1;align=center;labelPosition=center;verticalLabelPosition=bottom;verticalAlign=top;shape=mxgraph.webicons.github;gradientColor=#DFDEDE" vertex="1" parent="1">
          <mxGeometry x="188.8" y="-39.999999999999986" width="102.4" height="102.4" as="geometry" />
        </mxCell>
        <mxCell id="WquU7Fkmp-02zfPLn8dz-19" style="edgeStyle=orthogonalEdgeStyle;rounded=0;orthogonalLoop=1;jettySize=auto;html=1;entryX=0;entryY=0;entryDx=0;entryDy=0;" edge="1" parent="1" source="WquU7Fkmp-02zfPLn8dz-20" target="WquU7Fkmp-02zfPLn8dz-23">
          <mxGeometry relative="1" as="geometry" />
        </mxCell>
        <mxCell id="WquU7Fkmp-02zfPLn8dz-20" value="" style="shape=image;verticalLabelPosition=bottom;labelBackgroundColor=default;verticalAlign=top;aspect=fixed;imageAspect=0;image=https://icon-library.com/images/jenkins-icon/jenkins-icon-15.jpg;" vertex="1" parent="1">
          <mxGeometry x="20" y="82.4" width="80" height="80" as="geometry" />
        </mxCell>
        <mxCell id="WquU7Fkmp-02zfPLn8dz-21" style="edgeStyle=orthogonalEdgeStyle;rounded=0;orthogonalLoop=1;jettySize=auto;html=1;startArrow=classic;startFill=1;" edge="1" parent="1" source="WquU7Fkmp-02zfPLn8dz-23" target="WquU7Fkmp-02zfPLn8dz-5">
          <mxGeometry relative="1" as="geometry" />
        </mxCell>
        <mxCell id="WquU7Fkmp-02zfPLn8dz-22" style="edgeStyle=orthogonalEdgeStyle;rounded=0;orthogonalLoop=1;jettySize=auto;html=1;entryX=0.5;entryY=0;entryDx=0;entryDy=0;" edge="1" parent="1" source="WquU7Fkmp-02zfPLn8dz-23" target="WquU7Fkmp-02zfPLn8dz-1">
          <mxGeometry relative="1" as="geometry" />
        </mxCell>
        <mxCell id="WquU7Fkmp-02zfPLn8dz-23" value="" style="shape=image;verticalLabelPosition=bottom;labelBackgroundColor=default;verticalAlign=top;aspect=fixed;imageAspect=0;image=data:image/png,iVBORw0KGgoAAAANSUhEUgAAANMAAADvCAMAAABfYRE9AAAAyVBMVEX///9cTuVAQLJTRORQP+S0r/JZSuU3N7CQkM/5+P6wq/GSks9aTOVNPONVRuRRQeQsLK07O7H39v5LOePa1/jl4/p8cukzM6+blO6gme/Hw/VjVubx8P3c3O8nJ6zT0PeLg+u6tfN4beno6PVvY+iRiexpXOerpfC/u/SBd+qknu/g3vlmWebFwfWlpdeJicyurtvKyudPT7dgYL1FRbSVje1/f8jW1PjNyfZzc8PBweNoaL/S0uuZmdLFxeVjY762tt9OTrdDLuKATAZ9AAAH3UlEQVR4nO2d/1fTPBTG025Qh1vXDmGAYwoDJ6igIt8UfYH//496k7IBzdI2SZPe3J48v4hH5ORz6NP1Se+9IcQLh0Zfr6GXYFy9ePNkBr0Iw+qt99cHpz3oZRgVZQqCTv8z9DpMKmMK+t2jd9ArMacnpiBYH3ycQK/FlJZMQRB359CLMaQXpqDf6e9BL8eIXjExWx1+gV6QAeWYmK2OR9BLqi2OidlqA3pNdbXCFPSH72+gV1VPq0yZrbag11VHIiZmq0vEthIzUVvFa9BL01YRE7PVB+jFaaqQiVINTnDaqoSJ2qq7A70+HZUy0RTSOYBeoboqmOh9/RO6cF/FxO7rJ8hSSDUTpdrEFe5lmLCFezkmXOFekoldgGjCvTQTfVwaIgn3Ckw03Acowr0KE3tcOkIQ7tWYshTivK1UmZitXA/36kw0hQRuh3sNJmarbZdTiBZTZit3H5c0mZitnE0h2kzUVl8dDff6TFkKcdJWdZgo1eM3aACB6jEFHRc/q+oyubgL6JkKmdx4BlyswhDT/BC+yGJ0e/70hSGmtS54kcVZkrx9+soUUyfoxJAPFr/DcRgZZwr6XbDapf2LJAxtMGX7MBC2mpxP09AWE3trcNo40tk4CkOLTEG/Ezf7uPSPGim0y9Tw9ub+nyQM7TM1WLvUO0/SsBkmdrNoYnvzexKFYWNM9B+sb2/++DkOw0aZbNcuzW5zl10zTOwCtFa71Hs7XSFqhCkIYkuR8T6NVokaYrJTu3T3MxERNcVkYXtzdiu67BplYp9WO+ZSSO/v6q0BgInZylQKuY/4+zcUE7XVJxPbm3cXBUaCYMq2N+umkMlVyWUHwcSodmvZ6m8ivH+DMtHvjfWLLH6HZUaCY9JPIfsVRgJk0kwho6vCTyQXmHTC/XM0d5aJFVmohPt/vySMBM2U2Uo2hVAjyV120ExZB4WMrUbnkkZygUmuyOK7tJHcYKousvihYCRHmCpSyOyPipF4psE6EFNJkQW3xyXN9Gbx/98ddWv8ppbhXIuJNSaJ3jMqG4lnIuTzut6CDDCJiizuVva4NJgI2dW+AOsysQswZyvRHpcWE5mcaFLVZ2J7ZjvLPTPxHpceEyHXn7RsZYKJ/pThYhUyiUKeiZCDTgzFFAwWa9C7NxQzkd5OV/kCNMTUtcVEyNb2QPECdJ+JkA/vh0pUGJjo6mIVW+FgIqPLTXlbIWGitjqUvq+jYSLkRtZWiJgI2RhI2QoVExl9lHlcwsVEyBcJW2FjIuTbeqeCCh8TIfNuua0wMpFJua1QMtFwX5ZCkDKVhnu0TKRXGO7xMhEyKwj3mJloChHaCjcTDfeCFIKdiYb7lRSCnkkQ7lvAtJJCWsFEU8jwla1awkTD/ct9vS1MLIUsbdUeJmqr4CmFtImJppDMVu1ioimEflq1jIna6qg7bBsTDffxvHVMpPeufUxLeSbPBMa0WascxgzT1CwT+dav85sywRRF380i0TvgqcJrK/NM6fTcRs9zxfamTaY0+WOriVa7dqkm0/jhnyUips+xlq1qMUXJmUUipl31IotaTGlixUh5bWnULukzJf/tWydiuv6qVmShzzQOLRppvpv764GirfSYorFVI61t5vtxeztKF6AOUzq9stutvdbhG0y2thWoNJiSC9tGYs+w/BTPG3lbKTONw3vLRMvncn6K59pQsnZJkSlN/lones4a/BTP19ubxpjS5LaRaSIvMzEG+Tb3rUOZkkAVpuTnXRNEuUzIH9Gx3N40wxRF980QcTmXbzCpKrKQZ0qTt81NUcpnd77NfXJcYSs5pnTajJGETKsNJhUpRIopeWjISAVMWSV87jLZK6tdkmCKxsajuTITa3PPN5icFqeQSqY0edP4ODLhXhjf5j45KdqyqGBKp9aiuSpT1mCSW0yRrcqZxg8/micq2bPk29zFtUtlTJYTRbFK9mG5NvferuACLGZKp+dQpwGV7S3zR3QIapcKmZqK5iKV75fzM+xWapcKmMa/bO5xValyJgbX5n6Qf1wSMkVTICMtVPleg59hl29MEjClyRXwsVoS72r4NvfXtUurTPajeaWk3j/x0yNugmW455nG6W8ACE6S79RibobdxqLfL88E9omUl/R7wuF7Ltxnn1avmdIptJEWUpiJwR0UmDUmvWJywEgLqbzP5WfY7QXDZ6Zx6ICRFlJ7R83PsJs/Lr6YNrHHJSvF9+58uJ9xfzoh9ZkYbh/RwaRRH2F0hp0NadV8mJthZ0V6dSyGZthZkm5tjqtHdDDVmYlRb4adPdWpoaozw86matWF0RQCvX6RDM3EcEqG6veckmfyTFDyTJ4JSp7JM0HJM3kmKHkmzwQlz+SZoOSZPBOUPJNngpJn8kxQ8kyeCUqeyTNBacPMTAyn1Nuo7NtCx1RreoSzTNpHdDjNJJ7iiZ1Jtc0dBVM2PULjAnSbSf2IDgxMCm3uiJik29wxMcm2ueNiUjiiAxHTS4NJm5jI5Fh2hBgeJrkjOrAxsQYTmWSFi4mQucR9HRuTzMk36JgkZtghZGLDcUuHsqBkKp0egZaJzEpshZWp7OQbvEzFJ99gZio6+QY1U8HJN8iZhCffoGcSHGvbAqaVPbM2MPETV9vBlN8zawsTe2kVt46JjJa2ahHT81CWVjEt9sxaxpTtmbWOiYwuH6u/CZ2+VH+Ll5eXlxH9DyvrxXjEj3C+AAAAAElFTkSuQmCC;strokeWidth=4;imageBorder=default;" vertex="1" parent="1">
          <mxGeometry x="340" y="100" width="61.79" height="70" as="geometry" />
        </mxCell>
        <mxCell id="WquU7Fkmp-02zfPLn8dz-24" value="TERRAFORM&amp;nbsp;&lt;br&gt;Backend" style="text;html=1;strokeColor=none;fillColor=none;align=center;verticalAlign=middle;whiteSpace=wrap;rounded=0;" vertex="1" parent="1">
          <mxGeometry x="210" y="160" width="60" height="30" as="geometry" />
        </mxCell>
        <mxCell id="WquU7Fkmp-02zfPLn8dz-25" value="Jenkins File" style="text;html=1;strokeColor=none;fillColor=none;align=center;verticalAlign=middle;whiteSpace=wrap;rounded=0;" vertex="1" parent="1">
          <mxGeometry x="60" y="20" width="60" height="30" as="geometry" />
        </mxCell>
        <mxCell id="WquU7Fkmp-02zfPLn8dz-26" value="Terraform files" style="text;html=1;strokeColor=none;fillColor=none;align=center;verticalAlign=middle;whiteSpace=wrap;rounded=0;" vertex="1" parent="1">
          <mxGeometry x="380" y="10" width="60" height="30" as="geometry" />
        </mxCell>
        <mxCell id="WquU7Fkmp-02zfPLn8dz-42" style="edgeStyle=orthogonalEdgeStyle;rounded=0;orthogonalLoop=1;jettySize=auto;html=1;entryX=0.5;entryY=0;entryDx=0;entryDy=0;" edge="1" parent="1" source="WquU7Fkmp-02zfPLn8dz-31" target="WquU7Fkmp-02zfPLn8dz-40">
          <mxGeometry relative="1" as="geometry" />
        </mxCell>
        <mxCell id="WquU7Fkmp-02zfPLn8dz-47" style="edgeStyle=orthogonalEdgeStyle;rounded=0;orthogonalLoop=1;jettySize=auto;html=1;entryX=1;entryY=0.5;entryDx=0;entryDy=0;startArrow=classic;startFill=1;" edge="1" parent="1" source="WquU7Fkmp-02zfPLn8dz-31" target="WquU7Fkmp-02zfPLn8dz-37">
          <mxGeometry relative="1" as="geometry" />
        </mxCell>
        <mxCell id="WquU7Fkmp-02zfPLn8dz-65" style="edgeStyle=orthogonalEdgeStyle;rounded=0;orthogonalLoop=1;jettySize=auto;html=1;entryX=0;entryY=0.25;entryDx=0;entryDy=0;startArrow=classic;startFill=1;" edge="1" parent="1" source="WquU7Fkmp-02zfPLn8dz-31" target="WquU7Fkmp-02zfPLn8dz-52">
          <mxGeometry relative="1" as="geometry" />
        </mxCell>
        <mxCell id="WquU7Fkmp-02zfPLn8dz-31" value="" style="strokeColor=#dddddd;shadow=1;strokeWidth=1;rounded=1;absoluteArcSize=1;arcSize=2;" vertex="1" parent="1">
          <mxGeometry x="360" y="260" width="140" height="60" as="geometry" />
        </mxCell>
        <mxCell id="WquU7Fkmp-02zfPLn8dz-32" value="GKE cluster&lt;br&gt;&lt;div style=&quot;color: rgb(212 , 212 , 212) ; background-color: rgb(30 , 30 , 30) ; font-family: &amp;#34;consolas&amp;#34; , &amp;#34;courier new&amp;#34; , monospace ; font-size: 14px ; line-height: 19px&quot;&gt;&lt;span style=&quot;color: #ce9178&quot;&gt;primary&lt;/span&gt;&lt;/div&gt;" style="sketch=0;dashed=0;connectable=0;html=1;fillColor=#5184F3;strokeColor=none;shape=mxgraph.gcp2.hexIcon;prIcon=gke_on_prem;part=1;labelPosition=right;verticalLabelPosition=middle;align=left;verticalAlign=middle;spacingLeft=5;fontColor=#999999;fontSize=12;" vertex="1" parent="WquU7Fkmp-02zfPLn8dz-31">
          <mxGeometry y="0.5" width="44" height="39" relative="1" as="geometry">
            <mxPoint x="5" y="-19.5" as="offset" />
          </mxGeometry>
        </mxCell>
        <mxCell id="WquU7Fkmp-02zfPLn8dz-39" style="edgeStyle=orthogonalEdgeStyle;rounded=0;orthogonalLoop=1;jettySize=auto;html=1;entryX=0.5;entryY=0;entryDx=0;entryDy=0;" edge="1" parent="1" source="WquU7Fkmp-02zfPLn8dz-35" target="WquU7Fkmp-02zfPLn8dz-37">
          <mxGeometry relative="1" as="geometry" />
        </mxCell>
        <mxCell id="WquU7Fkmp-02zfPLn8dz-35" value="" style="shape=mxgraph.gcp2.doubleRect;strokeColor=#dddddd;shadow=1;strokeWidth=1;" vertex="1" parent="1">
          <mxGeometry x="102" y="240" width="148" height="68" as="geometry" />
        </mxCell>
        <mxCell id="WquU7Fkmp-02zfPLn8dz-36" value="&lt;font color=&quot;#000000&quot;&gt;Name&lt;/font&gt;&lt;br&gt;Cloud Network&lt;br&gt;&lt;div style=&quot;color: rgb(212 , 212 , 212) ; background-color: rgb(30 , 30 , 30) ; font-family: &amp;#34;consolas&amp;#34; , &amp;#34;courier new&amp;#34; , monospace ; font-size: 14px ; line-height: 19px&quot;&gt;&lt;span style=&quot;color: #ce9178&quot;&gt;net_tarea&lt;/span&gt;&lt;/div&gt;" style="sketch=0;dashed=0;connectable=0;html=1;fillColor=#5184F3;strokeColor=none;shape=mxgraph.gcp2.hexIcon;prIcon=cloud_network;part=1;labelPosition=right;verticalLabelPosition=middle;align=left;verticalAlign=middle;spacingLeft=5;fontColor=#999999;fontSize=12;" vertex="1" parent="WquU7Fkmp-02zfPLn8dz-35">
          <mxGeometry y="0.5" width="44" height="39" relative="1" as="geometry">
            <mxPoint x="5" y="-19.5" as="offset" />
          </mxGeometry>
        </mxCell>
        <mxCell id="WquU7Fkmp-02zfPLn8dz-37" value="" style="shape=mxgraph.gcp2.doubleRect;strokeColor=#dddddd;shadow=1;strokeWidth=1;" vertex="1" parent="1">
          <mxGeometry x="87" y="341" width="178" height="68" as="geometry" />
        </mxCell>
        <mxCell id="WquU7Fkmp-02zfPLn8dz-38" value="&lt;font color=&quot;#000000&quot;&gt;Name&lt;/font&gt;&lt;br&gt;Cloud Network&lt;br&gt;&lt;div style=&quot;color: rgb(212 , 212 , 212) ; background-color: rgb(30 , 30 , 30) ; font-family: &amp;#34;consolas&amp;#34; , &amp;#34;courier new&amp;#34; , monospace ; font-size: 14px ; line-height: 19px&quot;&gt;&lt;div style=&quot;font-family: &amp;#34;consolas&amp;#34; , &amp;#34;courier new&amp;#34; , monospace ; line-height: 19px&quot;&gt;&lt;span style=&quot;color: #ce9178&quot;&gt;subnet_tarea&lt;/span&gt;&lt;/div&gt;&lt;/div&gt;" style="sketch=0;dashed=0;connectable=0;html=1;fillColor=#5184F3;strokeColor=none;shape=mxgraph.gcp2.hexIcon;prIcon=cloud_network;part=1;labelPosition=right;verticalLabelPosition=middle;align=left;verticalAlign=middle;spacingLeft=5;fontColor=#999999;fontSize=12;" vertex="1" parent="WquU7Fkmp-02zfPLn8dz-37">
          <mxGeometry y="0.5" width="44" height="39" relative="1" as="geometry">
            <mxPoint x="5" y="-19.5" as="offset" />
          </mxGeometry>
        </mxCell>
        <mxCell id="WquU7Fkmp-02zfPLn8dz-40" value="" style="strokeColor=#dddddd;shadow=1;strokeWidth=1;rounded=1;absoluteArcSize=1;arcSize=2;" vertex="1" parent="1">
          <mxGeometry x="345" y="380" width="170" height="40" as="geometry" />
        </mxCell>
        <mxCell id="WquU7Fkmp-02zfPLn8dz-41" value="&lt;div style=&quot;color: rgb(212 , 212 , 212) ; background-color: rgb(30 , 30 , 30) ; font-family: &amp;#34;consolas&amp;#34; , &amp;#34;courier new&amp;#34; , monospace ; font-size: 14px ; line-height: 19px&quot;&gt;&lt;div style=&quot;font-family: &amp;#34;consolas&amp;#34; , &amp;#34;courier new&amp;#34; , monospace ; line-height: 19px&quot;&gt;&lt;span style=&quot;color: #ce9178&quot;&gt;my-node-pool&lt;/span&gt;&lt;/div&gt;&lt;/div&gt;" style="sketch=0;dashed=0;connectable=0;html=1;fillColor=#757575;strokeColor=none;shape=mxgraph.gcp2.cluster;part=1;labelPosition=right;verticalLabelPosition=middle;align=left;verticalAlign=middle;spacingLeft=5;fontSize=12;" vertex="1" parent="WquU7Fkmp-02zfPLn8dz-40">
          <mxGeometry y="0.5" width="32" height="32" relative="1" as="geometry">
            <mxPoint x="5" y="-16" as="offset" />
          </mxGeometry>
        </mxCell>
        <mxCell id="WquU7Fkmp-02zfPLn8dz-49" value="" style="strokeColor=#dddddd;shadow=1;strokeWidth=1;rounded=1;absoluteArcSize=1;arcSize=2;" vertex="1" parent="1">
          <mxGeometry x="70" y="450" width="240" height="60" as="geometry" />
        </mxCell>
        <mxCell id="WquU7Fkmp-02zfPLn8dz-50" value="Cloud SQL&lt;br&gt;&lt;div style=&quot;color: rgb(212 , 212 , 212) ; background-color: rgb(30 , 30 , 30) ; font-family: &amp;#34;consolas&amp;#34; , &amp;#34;courier new&amp;#34; , monospace ; font-size: 14px ; line-height: 19px&quot;&gt;&lt;span style=&quot;color: #ce9178&quot;&gt;gcp-training&lt;/span&gt;&lt;/div&gt;" style="sketch=0;dashed=0;connectable=0;html=1;fillColor=#5184F3;strokeColor=none;shape=mxgraph.gcp2.hexIcon;prIcon=cloud_sql;part=1;labelPosition=right;verticalLabelPosition=middle;align=left;verticalAlign=middle;spacingLeft=5;fontColor=#999999;fontSize=12;" vertex="1" parent="WquU7Fkmp-02zfPLn8dz-49">
          <mxGeometry y="0.5" width="44" height="39" relative="1" as="geometry">
            <mxPoint x="5" y="-19.5" as="offset" />
          </mxGeometry>
        </mxCell>
        <mxCell id="WquU7Fkmp-02zfPLn8dz-51" value="" style="shape=image;verticalLabelPosition=bottom;labelBackgroundColor=default;verticalAlign=top;aspect=fixed;imageAspect=0;image=https://www.mysql.com/common/logos/logo-mysql-170x115.png;" vertex="1" parent="WquU7Fkmp-02zfPLn8dz-49">
          <mxGeometry x="160.00421052631577" y="10.5" width="57.68" height="39" as="geometry" />
        </mxCell>
        <mxCell id="WquU7Fkmp-02zfPLn8dz-52" value="" style="rounded=0;whiteSpace=wrap;html=1;fillColor=#d5e8d4;strokeColor=#82b366;" vertex="1" parent="1">
          <mxGeometry x="540" y="210" width="260" height="330" as="geometry" />
        </mxCell>
        <mxCell id="WquU7Fkmp-02zfPLn8dz-53" value="" style="shape=image;verticalLabelPosition=bottom;labelBackgroundColor=default;verticalAlign=top;aspect=fixed;imageAspect=0;image=data:image/png,iVBORw0KGgoAAAANSUhEUgAAAQIAAAD8CAYAAACcoKqNAAAAAXNSR0IArs4c6QAAAARnQU1BAACxjwv8YQUAAAAJcEhZcwAAFxEAABcRAcom8z8AAE1DSURBVHhe7Z0HvFXVlf8d0yZlJuU/mZSZaBJrosZMYk9ijLEm1mhi7z0axQaigoIFbIjYwIIiFsQGilhQEVDBHgEjRQXhPV7v/d772P/13WcffcK55552y7n3/D6f9bmvnrL3WmuvvfYqGySoHKxdu/arQttkMpnDhS6SrycIPS40w3zy/VChw4S2Vkr9u/nXBAkSxBki0N8RoT9KPu/v7+9fJZ8ZEfCc4O/k71fKl/fK14cKfd1cMkGCBHGBCPCWIrzXCiHMoSFK4QO51pDOzs4fmFskSJCgVNHX1/dLEdjbRXDbjAxHCrnuarn+CPlyI3PLBAkSlApSqdROIqSThHoskc0v5D51Qlgcm5lHSJAgQbEgMrmbCOMjQmlLRAsLUQbNcu9xYolsbR4pQYIEhUI6nd5XBHCGkceiQxRCh9BdYpn82jxiggQJ8gGRty+IAviLCNyLlviFR0/fWtXZs1Z/RgFRTj1C9wvtYh47QYIEUUCE6itCRwi9YuQtEBD4dz7sU/c836EumdSiThnXpA6/pkEdelW9OkI+T7u5SV32QKuaOq9TfVwbbqchz5oWelQU1+7mNRIkSBAEIkhfz2QyJ8rnm0a+AuGT+rS6cVq7OnBkvfrF39eoLU6pVpucVKU2l8+fnVqtfn6a9bn5ydVqU/k5v9/x3Bp15q1Nata7PSqdCWctiAXztLzDvua1EiRI4AUiO98SwTlTBGihJUrBsLw6pa6c0qp+c36N2uTEKvUzEfhfnrVG/Z/Qr/6Rnfg9CmMzUQwoiWOua1BPLugOvX1gSyPvdbB8+QXzqgkSJFgXIiTfFTpfaIklOsGw+JM+NWxyi17VWfm3OaPaUeC9EIoDC2FLsRj+enWDbBu6VEd3aIXwqlg6R8p7fsW8eoIECbq6uv5HBONSEYyPjawEAvv/wXc3q+3OXqNN/F/8PbgCWJewElAGKIUDR9ap+17sVM0d/ebOwSAK4S155xOEkvDlBJULEYCNRRiulM9qIxuB8NoHveqc8U169bYUgLMwR0H/J8QWY7OTq9Q+w+rUhGc6VH1rOIUg779QFOHfW1pavmWGJkGC8kdvb+/mwvzXixKoN7LgG2vFOn95YY86/ZZGtY2s/Ajmtmc6C2++CP8BimePi2vVuCfbVXWjp3ymrJAxWSJ0rnz5X2aoEiQoPwiTbyPCf6t8tlis7x+p9Fr17Fvd6oQbG9VWp1sK4JcFVgDrEs+BL2LXwTXq2kfb1IrwR48fiYVwsXwmCU4JygfC0NsL3SPUZXjdN7p716pp87vVUdc2aNN881NEAeTw/heatj7DshB2Oa9GXfFQq1paFVohrBbFmSQ4JYg3UqnUrsLMU4T6LNb2j/bufvXw3E516NX12lEH5Tr+KzZxSoFC2H5QjQ5cWrgi8OtryPjVysdo+dzUDG2CBKWPdDq9lzDtdKHAXrSmjn416YVOdeCIOh3og8e+1BXAusSpBQoBB+N5dzarN5aFUwhiHTTJmI7t7e39uRnqBAlKC8KnG4oCOEiY9XmLbYOhriWj7nimQ+07rE4H9LANQJCcBC0uhBPTPs0gWnHe4l7ztsEgyqBNaLzQtmb4EyQoLoQvv5zJZA4XBTDPYtNgqGrIqJufbFd7XFynhQaPvJNQxZlQCDg3t5Ktw8ljG9Xz7xC+bAYgAEQR4HOhlNr2ZjoSJCgshAG/IQwYOg+A5B487b8fXKsVAB54JyEqJ+KUQ+c5iLI7OoLwZZmDPlHEU+TL35rpSZAgvxBm+7Yw3llCizQXBsTSqpT2rJMHgALA4+4kNOVMdvgy9Ner69XUuV3aORoUMif9QtPkyz3MdCVIEC2Ewb4nW4DBsvIst9guGBatTKlL72tROw6y9s1h8gDKhezw5c1l23CADl/uUE3toaMVn0mn0/uZ6UuQIByEoX4kCuAyUQCrDI8FAnkAF97drH5t8gCIBnQSikomFMLnwpdntqva5nDRijJvs2X+/ipfftFMaYIE3iEKYFNhomvkkzPswFiwpE+dPaG5IHkA5URW+HK1+uPQWjV2WruuqRAGMo/zhY6RL5OmLQlyQ5hla1EAN8tns8VCwTBnEXkATbLyW57yQucBlAvhPEUh7HphjRo1tVUtXxNaIbwjFsKp8vkfZsoTJPgMwhi/ErpTqNPwjG9kZFv73Nvd6sQbG9XPhYHZ8xY7D6BcyA5f3vm8GnXZ/S1q8ScpM+rBIMr+fZnrs4W+Y1ggQSUjlUrtIswwWShwP4De1Fr15IIunQdg5+yXWh5AuRC+FRTC9ufUqCH3NGvfSxiIQvhQ5n6IfPl9wxIJKgnpdPoPwgCh+gFQDPSReV366CsueQDlQvhaUAiM96AJzWr+B+GiFUUhrBK6vLu7O0lwqgSI4O8j9JRQ4AiWls5+NfklKw+A/X8c8wDKhXS0onbCVmufzOyF4Ro9iTKoFbqmt7c36eBUbpD53VDoIJH9WXq2A6K+NaPufLZD7Tu8Tm0qCkDnASQKoCTo0/Dl06t1rYZn3+7RPpugEGXQLDROeCZJcIo7Fi9e/GWZyMOFwuUBNFp5AHsOtcKAOdqKeyJQuZIdvrylzBE+m+kLulRvOlT4crsohDv7+vp+ZdgqQVwgk/fVTCZDUcw3zHwGApV2rnussvIAyoWw1Gy/DQ1cCF/u6AkVvtwjCgGn8k6GzRKUKmSS/lMUwBny+Z6Zv0Cgss6VFZ4HUC6EQsCHQ0r3/iPq1KQXOkJVXxZlkBGig9Nuhu0SlAra29u/KwrgfJmgUP0AFq4weQAR9ANIqLTo0+rLMq/7XFqnxs/sULUtocOXZ8iis7dhwwTFQldX1/+KAhgmE7LCzE0gvLWcPICWvPQDSKi0CIVAsBfzvPtFterGaW1qdfjw5eeFDpQvNzSsmaAQ6Onp2UQGfpQogDXWVATDq//qVWePb9bmo6UAnJmnXIn3xu9h9z+stDBo3h3L73cX1qjRU1vVh+HDl+cI/U2+/JJh1QT5ALXqZKDHigJotIbeP/ple/jSP3vUaePoB2D196s0Afi1kK0A9rykVh02ql4dNLJe/04HRQ3420ogHb58ohW+PDya8OUFwqfHCn3VsG6CKMDRjQzuHULtZqx9g34AM9/sVsePsfoBUBC0EvMAUAI4zzCLp8zpVA1t1j6Z8WGLdPrNTfr4rRLjI+zw5e3OWaMGT2xWb4cPX04SnKKADODOMpiThQKHi3X3rVVPvNaljrim3mr9LUxeyXkAbAEIiFpe7WwGp0QvDL2nRQfnOP1/JdDA8OWzxzep12QLGQbCx4uFzpIvv21YO4EXyKDtLsL/mHwG3rS1d6/VKx5nyFua8+RKXOUGElugbc+szhmX397Vr/a/vL4sC6j6ITtaEcVwmlhKL8qWkq1lUAhPLxOevqCjo+O/DasncIIM0p9ksGaacQsEzojpB3DAiPrY9gPIF6EMTx3nzb1y5zMdFbtFWJd0tKLwElvK48Y0qKff6FZ9IaIVhcdXCq/T/fqHhvUTANMQJFQ/APIAPusHYPIAHCa1kmmTE6vUjU+0mRFzxxtL+/SKmNRT+IzYUurqy7K4HD66QT3+apfq7A2lEKqF74cL/T8jCpUJGYAfCN0tAxJ4NNc0WXkAlLRiX1fp5mw2QimiIMfP9OZv/WBVSlsDiSJYnxgXe7t58BX16oHZnaq1M1S04oeZTOYIIxaVBVEAbAMCBwKtqk+r6x8nD8AKA8Zsc5q0hCz6VBE8nSiCqEgrBBzQMq77XVan7n6uQzW2hVIIE+TjG0ZEyh+i/f4hLx3osBZvd5IHEIwYL6wnL3jl/V4dYZlUWspNOlpRLFEU7V6X1KnbZrRrSzUIRC7mdXd3b2xEpXwhSmC4eWdfeP+TlBo2mTwAi6GTPAD/RBTdsPtazIi6434xdxNHq3/CMoU/dxtSq24QizVI9WVRBhw3bm5EpvwgL0dtOF9Ytx9AkgcQnFi1OE710l7sqodbtXPR6ToJ5Sa72OpvL6hRV8tY+g1fRhmQS2NEp3wgSoAYbM/grJtgjqQfQHTEKQAKdVmWYCIbBBURgYkzzOk6CXknLFf4d8dBNWq4WGP/WuV9RywyM0c+yqcPg7zQz4SarNdzB1uAM29r0hqVPVel5QHkk1CqMOasd9wDNWk39seLaxP/S4Rkhy+jiEc+2KqPu71ALIObjBjFG/IuXxAl8KL1Wu4gEIg4bwYs8VZHT7aX+6GX3Vs3VDdm1E7n1iRWWB6IMf3pCVZLNxyyXpBOp/c14hRfiBI40bxPVlBk8qoprdoCSFah/BL7/nE5Tg6wylAaiTWWP0IhY6ERlJQLYhXQeftrRqTiB3n4b4oi+Ei/jQuuntqqfioMmjBe/glFQKcgN8xdnBwd5pvsVHCKpJAUlwsiR/8wYhU/yMOTceWK+1/q1KXBEyVQGCL45ezb3d010xd0awZNjg7zS7YyYBu8YIn7NkFkiY5M8Utnlmf/kjy4axHRD1an1PbnWIPhNFAJRU+YpMde36DSLr6q+17sVFskMQQFI05n/nxZnWrKUVRV5OloI17xQTqd3t08vyPILuB0gCAXNKPTACUUPbHS/+XKetXlkixz+9Pt2l+TJG0VjtgaX/uoe0JYf3//00a84gPRXmPM8zti/gd92jGYbAkKS1hfxMW3d2dffchQTIKJCksc6+58bo1aWZc9xkNkqi1W4cfyzBuK9vqn9fjOoBQUx4ROg5JQ/ghFQH3/DhdFQDJXoggKT1jH46a7n+hkMpn4bA/kebcURdBtPfr6qG/t11mDSb5A4QkfwWGj61WfS3AhFgGmqtP/J5Q/os4BnbXdip6IVXCzEbPSB7nV5rkd8fw7PYlXuki00XGr1TWPtJqZcMbMt7rFWrO82U7XSCg/xDbZCgHPHoYsC+ybRsxKH6K1rjfP7QiyshLTs/BE0tFxNzToEGI3YC0MmdiiVyin6ySUH7IjP594LasxDdDiGxlRK22I1srafZjTAurmbXFKoggKSazurDgUHPGC7t61+nQhqfhUWGKBJMrWDel0+gAjaqULec7vi0WQtUJmo6xG5Gpvc4bzQCQUnhB4klxwDLLCcBS40XFVaqszqlVNs/eCGSePbVTfO3K1vgbX4prJKU9+ibE+5roGHXbvgsuNuJUuRFvtI4ogq7djwQe96hdnJuGrURHmJAJKsVZOYXTClvyMPHiCVE4SYb743ha9HZs6r0v1pLI7otbFtPld6rw7mvQ1uBbX5Nr2fbgnDt9kLqMjkpKovuVW4Ugs7meMuJUuRAcMNc/riLue69AdaZ0GISFvxKqMya6FUVYQGOfw0fXqioda1UNzOnVDjqqGjBZ672LvDq61Wq5Jv0juwb2OvKZB/e7CWu34xaRFMSQZi+EIpUp8DT0UskEUQZV8fNOIXGlCHnKa9bjOuOCuZp1b4DQICWUnhB9BQ+CwAg6+ok7XbqTG/id1mVymZF7APUlZfu7tbnX9o226xDch4ygoTNxEKQQj4gncakvKYptJpVK/NSJXepAH/LpQ1srEhLUS1ZbkFngnVgcEi2xAzphhkDeX9YVqsJEv0AWIFOZ7ZnWoE8Y0fqoUUGDJ9sE70UzlzFvdE8MymcxZRuxKD6KldhBFkNUtTZkmzkkTh5M72cdIdGrefWitrmhD6bZ0pvSE3w0ohVtntKu/XGGdPuC0/EUy9zlpa1ko97ykTrW5RH+KnN1vxK70IA93inlORzwyt1NnWhUzkIhEGhxcrFLsbUtJKbFq0kkHJfC3UVbjjNoW717+UgXFUtnz/mN8k04ww0rAwek0BsUkeINj1mLyJwRP8gwU7s0G2YJ/IB9fNqJXWhBFcJf1mM5gZStWIBEMiJmNIvr9kFp10Mh67QnHQil2bUQmnedi1aRo6LOy5+7z4d2PExauSKnhk1vUTqYsfSn4EXgGzHGU8LbyNSnYWGP8vBiZsSgkeHLyi9lLyoki6O7r69vGiF7pQJ6NRKOs9QcyYtYecU2DXomdXj6fxGQiZCgAcu2pNU8+fmfPWt0Dn4o9+txdFEWhJ57xQAkcfV2DmvVuj5h8ZsDKHITRjnig5VM/QrEUMdYXi8FF97SomW/26C0Y83C5PNsOgyy+4fdO/5tPYkw49nWDLLxHGvErHchDbS7UYZ5xPVQ1ZtQu5xenICZbAc7A35PVKBsef61LbXdOjRbMQiiDbWQc8A5jlTz6SpdKlaDzrxAg0pGTJNtaK2QNBISN3oUsBk54Y1mv2m1ITVGc22xbDx5Z52oZysI71ohf6UCUwKHm+RyBlmVAi+E9pjwXnuxcYDVAYeRTGcDomKHbySpDll+uuP9KwbzFvTougaNllILT2EVJJFWdeGODamh1H//n3u7Rz1NovmXB3GFQjVrunoC0wIhf6UAe6hrzfI64aXp7UfwDljVQ67n11PwlvXoCtEnocL0wxLMQTIUfgL1ygs8Dp+Jdz3aonc+r0Xv0fDntsAROvLFRdXTntsLYqh02qvBbWt6dbcv0+dkTkGTxbRIqrW5IogjoypIVp99SnM45mFjELpBE4xVYL/wvFkxUyoB3Z695xzPtJRkDUEpYVpXWiWk4zFCeTuMZhJhLlMAhV9bnrA84EDg3sSqdrplPoibE6Kk5E5BKp+eBaKXvCdWaZ1sPLTLof7yIRKPCKwKEea9LalWzj4kHz7zZrZ83rJmKSYklRCbf28uzHwcl+DyImSAc/VeiPKNYQFACCPO+w2rVRzXerEMbODWLoQgIHz/2hgadsZsNIneXGDEsPuRhdhfK+rhvLO39NA3W6YXzSfZ9X5dn8AuceGwRgigwGI+TCPwBeKRbO4vvC3BjqFIFvHPAiHq9kgfdKjAXWBf7Dq/zrQTA8Tc0ajPd6dr5JPjndxfWuMaSiNjNMGJYfGQymQvMczni3lkdeiKdXrYQxH6TQhtBQN8FNLMfZQDjsSVhIu+WVa3QIAfgk7q0rpXP8/Pu50xoVi0+lRF/f8WDrbq6LsUyCHCp9ZHGHBVIXdcVr8WyClI1CSWw96V1OZu/OmHRyj69pSvGaRfvSrr+nIXZE5BEEayUj9JIQOrv73/ceixnDJnYrCfD6WULQZjnhG1On5+7o4wT7nuxQzuLvGwTUAKYshyV4msoFFaI4JOANPz+Vp2JuOvgGq2MCJLZ6NjVai8RhPYufyaB3tINrVUbH1elr4Ni2/PiWnXCjY26wOnLwqB1BYp85HiVjEcsLD+t8XHOYgksq/LvnEWhnjauqSi+LZtQfuNnuiYgpVOp1M5GFIsHeZavycMstx5rfZC+uv/l9UVPNEKzYlre8UxHoNTch+d2akHIdZrAXnKvS+pcw0Ojwsdi5rLinyrMyrEnDIugYMZiwdimNBYNwVx+ahEAksQIdbZLltkKlftgZaEc9xDFcN6dzWr6gi5VUwClMGGmKGV5HpSy2zzw7gjRoVfVqxW1/i0BlACBZoxnIWMb1iUU8Nnjm81TOUPk73QjjsWDaKNfy4Nk3YAvEU28/TnF76wL09h79rPEzFwewEx8/u3uzx1t2WTfg+3PASPq1Idr/F/bK7r71mpLY5CY+lgdWFoIphZ88xzrEr/nuMyvj4BoUGocZtsf8+4oeMYUhiVBath9LbKv74usDoITHpnXpflp3VMd+/35HUrgjFua9LbCLwh+Iy+C9ypG3MtA4h3Z1nT0ZB9RscjvM+JYPIgSOME8jyOmvdalGXGgwBSTeI7NTqrWAn3jtDZdbMMPFq3oU4fJKokAYh3YqxPfcyy1uiE/SoDAI9rGHyIrHILJ/VBsTu+4LsHQudJas+G0mxu1kDtddyAhhFgLKEOe6/gxDerJBd06NiAfmPlm96eKiE/GhOdEAaAIxsjWJeUzW5NnJdHrDxfVfqrsnd61kETuA8ru3Y+yW5gig3RL/pIRyeJAHmKC9TjOGPVw8RKN3IgVlOgy9tITn+9QvT7MZkxm9uMw46OyOuHZ3f/yOr2SRI3Wrn7tcNxHVgWEH8Xjl0ERzgvEfA+CQbIycl+n62YjnFwofwrUUkOBbr/5CKGmLD4nQrzf+fJ+tzzVrvnt9RwNRZ3w7Fs96rDRDVqZFHsbO5BQsLzfgy9nT0ASGeSXWxqRLDzk5iQava2fxgEcKJJMY+8xS5GYdBid5+SoKgjYg66K2BLAjH/i1S7dlQhGwPpwen4vhCK+VEz2ILhoYovOiXC6bi6yV2qUAgU55y4KNr5uQCE/KKt4UFAj4+9iLdnPWQpWwLrE/LPlckM6nT7UiGXh0dPTs4k8Q9bQpzXNGV3TLsg5fCEJrYv5zOrCihJkXxklFq9MqVNusiIxo1CiKIKr5b2CgGCaoIrAJoSLlXbrM9aoofc2+96O5QO0fKPaExmGCFqxfQFuxCJAQJpbB2uxCq43Yll4iBba3zyHI156j4QNy1R0esFSI9vJtJ+Y+XMXR7965QLbEzoRk5CEHyOq1QmL56bp7p12s+H6x9p8bw2yEYqW8d1N9uCPibVTLBBfwWkCCqDUFymI41J8Wm7BUGKZzzNiWXjIza80z+EIylTFsYcehSlgEFaMQhUFZZLx7CMoUTKntnZkNSaZJwhuE8XE/9se+SiI+AasHeJLGtoKZ33hpxgnc7rtmZZj0enZSpHsLdYM2QZlg1gEdUI/NKJZWIgieME8hyP+fktxgzGCEl5atPAmJ1brXPl2D1lqYfDMW916C0XwS9R7VJuJHnJxNrmBkwr+P+rnsnMwCB9+x8UjHhXqWzP6OJE5ZW7dYhBKkRgrrDM3iIW+hxHNwkG0z3eFqK/uiLaufrXnxXX6SMnpxeJAMCtNQ3NNQBjcJlYTDsswzkA3QoC5Nkd5QUC+BYFDUSsCmzhZ2H5QjT5ZyBfau/vVUdc2qJ+cEL2iLRThK+JINgcuMuJZOKRSqV1FEWRdKsm0w5wsRqJRlLSlWDTEDUS9RcAfgCeYfWo+g61gfBSNW8MMN2Ct2Gf1TtcPS6zMtiLEP5IPoMxYUUvZIZiLiFUhvgHLJhvEQp9uxLNwEB0wyNzfEQRmwOROLxUnYgKIr2+McC9LSvTZtzepn8oKlW/m5PoE+FB9KQjmLipMhR6UIU7J0VPbIq/XgEWHNeB037gQ48+W5pX3s8+jyOSHQv9pRLQwEO0z1dzfERRejMrbXGxixSIVdWVd+FgBLAEy6b5/1OqCmKkwEFZZ0IpIby3r04ok34oAy4DnpOnqdRFuxQj3PnBknXZQOt03ToTjnRoN2SAymRZFsJ0R0fxDbvZVuSl11R2REnk5eGT5tNSGQQk5nRNBQAxbjNkLe3QkojZX87x14voonI/WBFMEBNywWhfCIiDSkzJubuG0ftDYnlH7DKvVMSLFqEQcNeF4HzTBPVRcZPNkI6b5R19f37Zyw6xSQULPTucWP9EoKmKLc+HdwUJ0s4GtxlCxmrY8pUpbHE73jYLoLMRcrK4PFsTzcW1axzXk09fDqQRHeuOmU8bN3DgCYH2dI4LD/MXtlMCJ4JM/Da/TIe7ZIAv0RCOm+Ucmkzna3NcRM17v1t7gKM+ei0WceuQK5giDx17pUr+5wMoizMd4YdbjZApaUIT8id9eiFKPXllhrWAVYR3RZTkfIIqRo9k4n17ZhDJGKb/3cXaLSRQBIf+FSUCSm91m3dYZVLQJG5ZaKsRqMj5P3mwbS6tT6oQxDXrMoj7jZhXZd3ht4LLp9a39uuYADkOn6wclngtL4OJJLXkPKrr7+fJwXEO8x9R52Y9axVJv6+3t3cyIav4g9yLRaL51W2ccc332HPY4EWe3+11e76nsdVjgKR83vU2b8lGOnR2nHvQdqFIUZWEZrB6YmUIqhQozxpSmkUk58CSW42X358wbOciIa/4gGmdjoaweixoxQWktFvUKUmjCwUa1oULHxM97v0d3P4rq3BvmJ5jGT5r1QHT1rNWpxFHU9cfaQQmcNLZBLQ/ovAwKwnO3PDW+AUU2MQ9/k/nIuFSZkYX6WiOu+YMogX3N/RwxZ1GP7iGYby9zvol8AxpbFKMHAeY4cfh4icOuxFzjpLGNYjKai/tEOh2Nhcdz4BO49ani9HUgc+9YeQ98V07PFxciDwVrihqV2SCKYLYR1/xBFMEIcz9HTJhZnI5GURLmKwwTNCw3KlAn8dPSaOs8o1fClKQ0WxjQbCRoko7tEDxwRH3goKao8MK7PXpFjfMihUWDUqYoSzaIjNZ0dnb+wIhsfiDa5llzP0ecdXs8E40GEgN96NXBzekosbQqJSuZlZUYxHOPKU7iVBgQBRkkOAz/BIJHKHUp9HjEKjjqOqyCePMnczp2Ws6gq92MyEYPufh/ibb5xLrP+qDAIqWjo3IsFYtg+ilzgmXruRWPCApq6dEwlaNAvyY6CmTY5GDViWwQQ+HnFIhVi+Agju2ecOndFxQEZQVt1oKVp4+2Y2wVwANs99yQyWQGG7GNHtRPF0WQVbUTEUYEFwUXnV4gDoQS47gs6AqG5x/ByUcdAyIS9x1Wp4XSq3nL6kH8fhhQ1pvrOF1/IHHsibLib0+R7USQMuK5QJ7GiSIENFwJAk4QDhz5WYn2OBIxEfCo27GryOljRmyjh1z8H+Y+jmBP64VhSpl4/useDSY45CLsdC6py1W6sxDpr1GDhiKY+rr0lzCEW8wBfgX8C3SiDoNrHmnVtRKc7jGQMLlZaWnI4beCsBdUN2Z0f4YfHLVaHSTC7Fbi2w0UaYkzn7II5EokE1ldKh/fMKIbLfr7+x+wbuMMCmTGqfLLumSH0b7/SbCjLc53McURQD5pYMlxaj5AVdudzqvRcfTrvodNCCW/Jw03DGgq4qYIbIfgQVfUqwVL8lNkZMnqtDrgcquQqx2LQAeqICBakmjOOJQpy0aM973PZ39/UQQkIG1rRDc6yEVJNFpo7rMe0rL4UXM/ivPmYhErGmZnkP3nB6tTOvxzYH7FpgiHrFxBmql4AQqLGAGYwimvA2cdDF/dFE4ZkbnI9ak/6XQP5pztA8FH+cBby/vU7hdZyUMD78s2KWhzWbZvXqycUiV49dw7cjqBjzfiGx1EEfxMFEHWM4sPa1K68w4mi9ODlzqxyhBAFLSkFz30nRxqMO8fh9ZpZs4H2POSb4+QYo0hsBD3hR6eE01AFK3iYL5NZYzwoyCI1FPYbUhtXo9ZKYCL5bOuk9R2SE5+Mdh8vchRolwzrk5Dxp9S993uCUgTjPhGh0wmc7i5viOoZBPnRCOO5jiz/6Te/+qNU4wMv20cVmX28DAxzBy0SpAXvCDX/uuoerXDoBq1oxBdl6ZH7LF/5s1uXS5r70trdaVnjgWDjJdXPDG/S++HYXonXwjjSvg0beD8or2rX2fyxbVOAcp++3Pct7GiCF6Xj2gTkOSiN1mXdwarUpwdMKyetPcKEoGHMw7z3Om6EEwMM+ODCLtfdwMRe8QdQPmMgcBbne/8C7pPIaREqWZziLKaowyeezuYgh35YGug+IhSIeTNrdajWPFtQj8xIhwecs0N5YJzrcs7g4IS65pvcaLNxOy9d5Z/5xMnA3plEUF3uq5NMDP5F+ynMbMTOAP1csPjbXob4iWAilORoJGThMMzb3HdHvDuI0SZuUHkdn8jxuHR3d39I7lg1giGutaM7oQb10Qju4rP4gCnBTNlS+QnmQXmxvqgo1KheibEBVg0BD+x9/daCAUTmW5FQepFtHT2607DcQ2AY+E9fHS9bAHMCzlALPlRRozDQ5TAnua6jnjtX71aCcQ1hhunEZ1vguw18dz6NS9h8k2E2Qff3eJabaaSwFbjH7fTd8Bf1qV9lHhnwAYu59/lf/5KhTj+pAGvm59GZPd5I8bhkclkhpvrOmLic/EO0IARLpnkPx6fGAEmIshJCRYExSjpcVgKcfjFBBbl8TdYx6BBnM2sjGRIBjn2JZQcCy2OTm7bR+LmhBZFUNXe3v5dI8rhIObFU+a6jqAuHHs6p4ctdYIBePapc/078R5/rUv/b9A9JveG+f96dUMkFZLjiI/FpMfzT8yF0xh5IULatz+nRi0LEK/BdpB58LoVKTViEaONmxtEGexiRDk45Drfkgt9bF1yfXT2rNVHSbmcZaVK+AcwRRet9O8fuOie5kgsISZz72F1auGK/Lf+KiVQe2+vS+pCm+YoYhxnk1/yH1PQKVszIiLjGgjHQkSauBtEfs814hwccp1fy4WyGl2LVqSsRKOYalQcRUSoNfmMitOZlvJ/URXFZEIpODHPpYFFOYH35H2jsiRRJoMmBEu3PveOJr09cLpuqRP8izJ1216KRf+QEefgEB1wurmeIyjlRbSZ00PGgYjGI6zYL975sE9bElgUTtf1Sxwv4rREqT71ev5iDUoBlA3jPVmFs8UI+CWc1fTabOvy7yjgODeuOTLwICdRNKLJBpHh94W+bkQ6GESbTDLXcwQx5nFONGIlGfFAzmKQ64EuwSjAKJ1MCAUaHqae9EJ5xhrcL+Y74dC8Z1RKALK2eNXqjaX+t1dzFvZqp1tQX0+xabOTqvW4ZoMogVRfX99WRqT9Qy7wFaF3zPXWA0U4aBAa59xuTFOi2PyCU4Z8nJQgHNuIoPBcY57Ibxn1QoN6hQgcii5KJQChkJmPIAp0WXVK7XhuTWzraLAQ56pCJXJ8jBFr/6A+ulwga8D6ilqTzhng+KwUSB+/yCDOcqn/5oSUKMC/iQLMp4PUijWoUsPF4iqFkmlhkEqvVVc+ZIXzEgDk9L5REIqA/Ae/ILBIO7wj8vcUmthiUa7dLQ5GLPvbjFj7h/z/X63LOINEl6icPcUge3/13sf+TgwoDoKjK98KEHP3x8dXqZtzHA/5xaqGjFq8MqX7Gq5LC+Xnbq23g4A8FN5j2zyb3gjEkdc2BIrYpHZEXHkZHub4dMnq7HwsC/qr8vFFI9r+IP88xrqMM8ZOa9fHNk4PFwdidSJ12m946tvL+/T/F+KkhFXqD0OCl05bF5ST23Vwra6dQMbkuoSJTcXhWlF2UeCTurQ2uwsRfs49SIv2ewIEdNWnGPMycviUSzq4yDIJSD8you0d8r8kGs22LuOMk8c2xtoi4OiPlFpWeD946vVuvS3wEwoblFA27Kej6BBM41X6DOJcQgmykqxPVpATmZhR9B9g24VjsBBjRZeoHUjNFcvGLyhPF2dFgJ/gyik5E5D+ZMTbO+T/vi/7igbrEuujoS2j9rykVk+y04PFgTAl/yJ7K7+17+5+rsM17ThKQjDJO6cCUhhQQYpS814cnPhOeD9M+rCYu7hHb6GiOmZ1I2urt0YXefULHMZxPv3C13X0de7bIlEEI414e4f80+7m/x3xxlISjazBd3qwOJDO3rqmXjv//OC6R1t1noDTNaMkLIHNT6lSh1zVoPpCOgwJQ8X56PWIDEsERYn1EwZN7Rm1x9BafS2n+0RJvBvj9egr/iMMH3+1K9aKgASk3w+u0d2fs0FkeoYRb+/IZDIXm/93BLn7cfYPQGxrjrvBfzARRVrzXe8OQeT5OJp162rjBc++3a0tN0x/p3tlI/4Hv0GQ9OyBeGhOl1ZChcj9/8kJVdpi8wu6IDHeUcaFFJJ4bha2lxe5JiCtko9vGxH3BvmnR61/dwbpt3HWoBB7wpNv8q8Izp0Q/bsjIAgqk4lZ/oszaWdep6a5VKDxAk4HOOJFCP2e3dsWCbH4Yasx3/dip3bkcT22JyiZfDhbsdRwYvvFq//q1eZ1vhVVPomF+dYZOROQdjQinhvyx/8htNz873og0Ug3iSiAuZdPQhHQiMMvTr+lUTON0zX9ENsqBILzdSaRmom0N2My5y/pDVQfYV1c+4h1dEdIr9MzeKGNj1+tTeewoLnrk6936WhUnJa8P0oP5YcfIQohRMmMmuo/UpSIROYizltdFqczbnWv1iRyfY4R89yQv/+l/ENWtwPnzXFONLIJRXCaT0VAzvuJNwYvy4YzCwWKAOBj2fuSWl1am1qGpOQG7VqcDVQYpjpzUJNXh+4KRV2FGSWHn2n8zA51wphGHZcBI7Pl0gIZkLdQBLnKdznh7Q/7tEUWZ0XAuGFF0g0qG0SuJxsxz41MJnOq+T9HTJvfFeujFptgPL9bA8pCwbheFQGrHOfb7D9hUspqUV5qzONtOsY9aF1+ryB8lgrKfv0DNsFcKCs35ooCVNmZLkrr4kktugYkR4GfsxYcns2JUCQ0mvELkshY2ApxupEv4tlZaNyOmvv7+xetWrXqq0bU3SF/fJf5P0dQ/bUcFAHCSdFVP8AiOCGHRQBDsSdH8Fn9qefI0d0Dszu1NRW0gWcQEN5LafOg2zjGKFfDzajB1pM9O7kJbJUI+mL7BM/lMt8Z88sDJJERJBZ3iwBicXtQ+CwbRLZTYhVsYUQ9O+Rvvyx/+Kb1b+sjk1mrjr42/q2lIYSZs1e/5jiFIAa+/8BV325yQtWdq6a0am901CG7fnGJrLJBFTcCGEU8QRgQ+Um6O1uofagBIWOtlazM37qWDj/PFVjjBNtHEGdnIYSv6aJ73PMtRL6PNOKeHfJHPxGtkfXwmDj1oHX6So1YJQ+92n/RUopsUmmXVR9BQQHsOrhGOx4JTMHMTJVQ5bGgzWkxx2Gsp9+ItlFKGLR19euiJmOntel2bzSdZTvASoggc3wYRHG9KtdkHuN6fGiTXYiXVvrZIPI91oh7dogiONj8vSNeXtijV9K4a04IxmE/2ugzjp9KOD85vkp7vokpePrNbtdAjmLjnx+n9Hz5de6y2uqoxgAhu4UCiTZTRdFxnE2lnh8cvTrQ8eGsd+nUFX9FoMOsB61x7bcpMj5n6tSpXzAi7wzRFqPN3zuCCLVy8A9ARGNxtr2qwd/y/doHvbo5RlxKkdtl1TY61nsaMH+30bGrdXquW3+9UgKJWc++1ROo9iNbD6wKp7GIE6HwUWgsTtkgiqC5s7PzB0bknSF/9Jz5e0ecdnN867utS9pDLAMXtA16nEBHY/bYHPuyTch2isCWj9+TnThkYkvoqMK44O6Y5xoMJOTz6ofd/SQi53sbkV8f7e3t/yUWQZ352/XQ1EZnmHgnGg0kVr0fySqZz+akpQaUHt2ESA1G4LGKGAvbAcfPh09u1acblYTRUymcUh58jUVw3Bj39v6iCIYZsV8f8stdzd85gqALGCfuRyyEzvIeFHM4/JoG7dyrNLCHxLv+m/NrtIONT1YRt71lOeP8O5vVD4+2gpn8hmKXGtlb3jVNrglI04zYr49MJnOh+TtHTH5JzCfRmnF3qODtZ+WjVVul46OalHrgpU4d1VjJ+GhNWk1+sVOX/Ip76Dx+AnicWIxsEMv/E1EG/2lE//OQX0wxf+eIIRPpExevQUJpMTDsiTnt4JyfgiRT55V3yfAEwYBPBIsXPo9rlCE8z4J9+9PZT09E1qHtjeh/Bvnd10RLLLP+bH1w1n7IVaWlLRFwJo29Pntcng1hZxB0JJrsldgv8XNMXwqOsj9+06UGfIIEz7zVrQ4aWa8XD/I07FgRysbBa/AcvAc58WUpEM+cq1287ADOMuL/GUQ7bCOUdVPB3pEz5WInGnF/JgVC6FEAxNJTLYlAiiNkz3/qTY3aernxiTb18NwuvQXA9E1l4nEMlqD4YOEjZp9+ARff26LrVhA3oqt2C8/Be3rRET78dOERYtEptoxA+Dr+fFmday6LyPtEI/6fQbTDSeb3jqA7zRby4sXUggg/x190EKay78w3u/VkfSj7O4ptcq5fTsJOglN1Y0bHwT/xWpdmyteXlL41Q0jwPc93amfkhJkd+lQGkzvuXZ9bOvrVitq0jlOgHBrby5umt6trH23TgWUcrbMYbScLJkqBfboTHxeCsFpQSG4xFbID+OfixYu/bFSABdEOt5nfO4K4ebSe003zTXrPc0qVzhSMoohnKYICqrwbyu2Wp9p1pBzNY/44tFZtKyYqe1aO92CuM8Xko5V4KYKElx0G1ejMQXu15JMTGlJkKRt+6aQWdc+sTjX7vR59TJnvDMxCgoSppVUpXYiF7YX2NRRj8ZR7snBSHSobROZ7hDYxKkD7B74g2mGB9ev1wcqEacSFHW+aZ4KZyN6LoqpuscGqiJam/NiEZzrU4Ltb9HaG8Fje1TIxLeGxtz4DnVZ8vfFxVTojsKfEGp8g2FueKspqnTgTFDmrE+YqPMS7ISB8zekNJixZoJff36IFaM6iXi1MHd3xnu/27n7dTo/3LIYyYOG4RLY1bpCdwGFGDWywQXd3949EEWQt9FbdlFG7kmgkTOl0w3wSgrD7RbVi+sdr1SA5htUOs5hEJDIAyXTc59I67WsZ6IRC4BESr3tLtmf0XaQWYakAkUU5+WmIy3vgfENxfKoghHkZD1KPCW/mmlc81KotjXmLe/U2MIrKTYUECo4S8k5jkE9iHA8b1eDaKUvk/jqjBjbYIJ1OH2h+7ggmAJO0GP4BhCVXuGQxwarF6kUyFv35WQFY3UhmovAnDI5mtld4W+DDxmJwzWsClOTKFzDv94qovL2lIKzsTltB6G2RXJtKRgeMqNeZnqOnWs5g+NNv4lgh0SY8oluqFdhnQALSjueu0X6NbJCtwWyjBrR/YKT5uSPYs2KuhmVevwRDkFZJ5ZooQbEOKuJURZAx+MRr3WKuW0eUAwXeOmrKn/LEtA7SxTlfwAzG2olCEWQjxpJciE8VhCwSFCtlO0IiWFiwcr6+tFfNl2tFnU1ajNbrtvw852I5ikXQJPJvBRbJFzPNzx1x5q1NemV2ulk+Sb+ITPqTC8IH/7Bqk5dPIs1BI+t02y9Wl/PvatYhxjDArHd7fDcctVp6WVsYp3fIFzEfD73sv35/PnGhjGWh+QSFS7ESFFEQzHi9W48j7cKOvq5Rb3+x2H4v/IHv5ppH2rS1x1YvDMhWZYHI18KQjZgPuji5QeR/xw2oXyZaodr8bD3QKRZvbz41vRthiVwRoBglWC77yXtndYqpTgELK8mG67GiMOEIL1qaI0mccKyyQfIO2P/blYkKQTz374fUqtqQJcajxivv92o+KaRjjDkNunVEeexxca3632NXawuD1RM+gBhjvtdbEuEXlA3Vl+fKNsSt6Ec2jJJn5B5O75BPwmrCz4LDPxsymczJtD7fQjRCVo4ifRUNWZQjECEEdpfzajwXx0BzUxH4jFuadHlwJpL4h2xptxDvB/G3QarbUOGX6w/07ueTeM5S2hbYIIaDVZSVz+m5oyYttMKX/wx4pEwsABYnq7TbSs09UHCMO+HpNIm9TviEwrBegDVgn5w4XT+fhPzQRNetv6fI/804Cvcw3zuC/TmasdAmjU1kgsFY+11Wp/75cfYJJ4hlwjPt+u8wh9CEfsupwRREj3EW7AfUPKSOYSHMYltplWo8BQVa890FyibGG6dh0BLw1PbzO2coBSwELECsTKou46x04pm0KEYWJRYkFEkxshp5Xqwbt3L0siOYTUThYeZ7R9z5bIc2aYqlCCAGECHdflCNGnpviy6njhnK0dwtT7br8uK60q1MDpMU9Fn5P5QevgK/4Oybe+fbcmIu6KsQdf+DqNDQ1q/+MLRWr5xOzx8VMc7wBLELQVCjj8RrQx2J20VcOAKlAtTfb21Sdz3XoX0O8CU1FeEJBLFYqc3wNM9Af4tsEEXwEYrgRPO9I8ZNb9f76EKfGDgRA65Xe3keex/HRGAxRFVMleuffbt7soYTKAKRb6uASSXCctr8aE5RiHO4SxT9DY+3aUbx6yjNBqJQiSx0eoeoiHEm0tSt+68b7nuB3p3RPCO8yIqPkuYUA+L97W2H0/8Uirg/8sHRdjaIDmhGEZxivnfEzRwdlogisImXwzzOx+rL2StlupYGaENO5x7b6+x07bAEs2kPeUgPNuJ+24x27SSlKAm0yUnV6pjrG9Sq+vAOSCInmZt8jQPXxScTNIuUCFUyUQvlyygm2YrgPhdFIBZBB4rgePO9IyaJ5iz21qDQhJUxamqwWv6DJzbr1SAfpiDXHfNE+B4DWBSsWgPNd+b3p6IQ6MfQFEFXI/bunNAMfP6oiHEI0sTExkuypSyF1boQxDvyrhRnzQZRBA04C/9ivncEDTrC7LvjSGw56N1AaLVfEMWFv2KrEHtPJ2JbRFYb8RBhwJEZsf3ZVsMf0xdAtgphobNV87CAwNSknNNQNQjwrVgFeAvj0Cw2YZlhSbpV4xJF8AHBRL8x3zuC2G5M5XyZeaVKm8qqc9P0YAIx6QWroUiU2yntuxjfbO4QHES4ucU8bHPGGu0N5xQmDPCi73dZvV5EnO4ThNiLo8BmvhXcR7JgCXU3rWs53aPciAWEhcktilYUwTMogv8VyqoucCD97erK2E8NJKwCosvWBAja6RMZoj8iwhvFFsH2kL8Y4DRjIGrkXXinXB59lNjQHG2zvIDQ9CgDrdgSDJ4Y7rloG55Ph26pEc5lAurS7mw8eoPZs2d/UTTCUvMDRxBkwyQ43aiciXcmcCQIlogJv7OsrJhlTtf2QygB9u5hvfpE4HmZR8sZt0a9vTxc/P7Hsk0izZhrOd3HD3GsS1KTW2BMLrwi5jHzUSnWAIRlSwiAGzKZzBF2rsEk8zNHENX3K7YHEUxonIgTABiZ7VEQEEyCRg57usEKzfl0GOBb2O4c70LJqnnauCZ9whAG5HLw/E738ErbyDMzF3MXBbeISDQ79vqGvDkwS5EYM7YFqxuzK0+RfZwtW2pFIBrhWOvH2TH47vx5w0uZYOILhJmDgvj0MNYU8RHUyatymUwv4B38CKS9HZn1TriYBaLu9CocUBnyfzScdavI6wV2S7NKcnpzMkTSlBtEESySjw21IpBvvifk2gR/WXVal6DKd8RYqRFmJBluLwdcjTp7WYkaNTMHUaIIL2GsYUCdwyDxDeRo/PVq9866uZAS/XXY6OD5BzAzSixo4BCgVgEnDVE6Lkud2ErteUldzpb8/f39o7QSsCGK4C7zu6y4Z1aHZsxK0qoQTHzwFXWqI2CqKwVICUHVmY4O189GKCEE+PUlwffqRDyedCNn+v6tEuaZLYJb3TsvoHEI4d9+TlEYJ3iNqk5BU4xtUOGokNmhxSa2f1hhuZzLogRSIvfbGBVgQX6wnZDrZhitjHauVMfhmBDn64tWpnRsAkrFqzLgb48RQXBLIc0FiqGGqT7NKrq3rKZhKhCzKtGCi5MYp3s4ERbUgSPr9UlHGNDtJ4g1FFdinhk7TmxyQeT9CSP+n4doiIfM32RFe9dabS7idKkkfwFaFmYKU058gazsnNGz9841dqyerMZT5gYvPkI7c04bwh79bnJitbp5erg9+sgHW/UK73T9dYm6EIRSc+oQBq1d/aJM6rQidLpPORKWDxWwc22lRAlkhHY2ov95yO+3lF/mnHE80FT3Ye9cScpgi1OqdInqMNVqyJpEGeSyDFg9KWXe1B58RbRNcqfr+yGeBe/zqvrggknNALY6uVZmip9S7zGKZqwUtKkU6xVeYnE+RBQ/xYRyQRb9u43YO0MUwRDzt64g9HjrM6yV0unBypVgrOH3h3PeURMPRUoIbjZlwH1GPRx8K0I6MNV3UNZO1/dDPKN+78nh3ptsQbfjO1YzFO2KuvBKgLZlbGsqYUvA/PCuKOsPPCTLiYyvFvqhEXlnvPXWW1/KZDIvmP9xBXX5N5WJrSTnIasaAvxIyCaq732cUntfWudoLtvxGnQHCgravZFRuO61gxIKn6O891YEfyZqTzrlH3BdFM1xNzTojlVhwZbid4PFYq2QUwLbOfjcO7lPtkQBrE2n0wcYcXdHT0/Pj8V0+MT8b1bgkb7w7nDn5HEkTGV6E4StEoSpjVec8RsY7cYe+fSb/ddEsLFSVlSq4hBTP/C5wxCrDs+Vq7GmG9q716o/Xfb5st5WcY9qNeSeZt+VoZxA2zvGtFLCiC3nYJW6zWOcheiBy4yYe4Mog91EGeTkdPbL5HYz8NnM3HIj3hN/AQ6tIBmKA9EhzE/fPISMGA2chPgP8PYHBdfDwRf1fLBy65iKhcEj/OgVaC8cvCf1H0iEigrD9LtXzsLEu55/Z7NelHNBLP1H5OPfjIh7h2iPv1uXcAeOHY7GKsUUs4mVjGIeHT0hzvcM6ORDWfQfHVul6yaysgUBVgqrRL7CwTHtj7y2QYfsBgFZjfRB3Pj4Kr01osRbVBgvqyILUtAoxjgRSp7YEJqueukdKbL8T6HvGNH2D7EKbjXXcgX1AzGZiQt3evByJTQyxzU5srs8YfHKlDr4ino1NuBRHbn2VG/GunB61igIJYPDjzyKoDhPxouaAFE2cn381S69EFWC8xolwLsSeu6lPoXIcGNfX98vjEgHg1zny3Khl61LuoMsp0rRyDbZezRyCryYZ7lAOG/Q48mX3rOKyOR7/ImDyNV73w3N7f2hgqTWBcVmeedKCX9H2fGuNNLNBbEC+oUONuIcDnI9nIcrrUu7g05ClbRHg2BCjr4o2lksYKrTUwDT3ekZoya2ReNnRre3DwoajlC5qVJiWuyFh22QF4gSGGbEOBqkUqld5aI5PVisZnRgrSTnIYTXnwm6WpRBFJaBXzwipjpjDqM4PV/UxIq06+DwWZFhgBIgTdxLpGa5EIvsBXc3621gLsjiPdWIb7QQRXCauYcryN+nEk4lTRBkK4Nhk1t0pdxCobVzrY7GY7ydnitfBFNe+VBxrCAC2nA6VgqP8Y5+nIOiBN6Vj28b0Y0ecoObrVu5g8YTnBFH1W8gLmRtE6rVoAnNobPmvOLWGZQEK/w4s1eFQXFyFhJPvNalLR/8IZWy0PCuv7ugxlPotcgoHY63NiKbH8h9cB6+aN3SHVTVqTTnIQSTsloS2JJv03lNU0Yf3W583Gdt3hjvfPWh4N2wfGBMrJ//OWa1zkgtVOelO55t11F0bE0qRQn84gyrW5KXDlyiADLpdDoa52AuyP02EmWwwrq1O2hRVmnOQ5sQFM7K31gaLgLRDWQYcv1bn2rXnZZ0cVJhGo74uD8FKkjDRXi1gvCgJPTfIPBCxOpzPYJ/mEeckfxs/xH16qJ7mtVDczr1VjDfioCoQ3IdOBp1a2hbbsQ8MI/09fSCTCZzqRHTwiCVSv1OtE/OHFnM48NHV57zEOJ9ESDKwd8/O3g6sR/QKp0Mx/Ez23WzFU4SaKEOQ6EQ2FOjJDjlsFtz2aS/l59TQIUVH+uCdyB56bgbGnXEIsVpCFoKk4HpF/SKIHCLZ6w065J3Zh69QBbnKUY8CwtRBK7t0mx8XIPzsLK8uzbxvnqFFuG6aGJLqCq8QUDlY+5JAVr8NiRLEdJLExMcfZff36Kdm8RBXDmlVfdBJB6EGn9zF/eo5bLaN7b1q3Th5P5zINSaoiYsJE7jW87EO1P7g7oKHvCWUP6cg7kgWmic9RzumLOwVzuXWJWcXrrciZUME2/f4XWBui1XGpo7+nWJMeIDKskpaBPvvOuFNVoR54LIYKMsyj8zIlkcLFu27CvyILPMM7li4vOV6TwcSOzZcXZhZlPLMMH6eFkWjQNG1OltSiXUE1iXWCzJHCVSNBdEAaQFBxpxLC7kYeiW9LF5NldcMqlF70WdBqBSCOam8cQfLqrVMfIJLJA+DX/YzkmnsSt3sp2DuZqS2MhkMkONGJYGUqnUb8UyyOkRoxIw2WuU0Ko0c29dItMQ8zeBBfwBGx1XVRGJQ9kI5yCnMV4glsCDRvxKC6KdTjbP6Aq8wH8YUqvNZKfBqATC/Nv1wlq1yqU5ZaWBHhAUW2V/7DRm5UwsimybDxtV7ykQTSzwN+Xjm0b0Sg/ygGOtR3UHHmly5ivVechZOHULw1bqLSd091Ehu6EiFwhO1HYdXOupvZ5Y3nW9vb1Wm7JShTznl0UZPGc9sjtoH16pzkOrXHm1umdWYeIL4gAax9pBTE5jVq6knYOyKM72UPlJZAvn4P5G3Eob8rA/FPrQPLsrrLJalec8tBXBHR6dQmQ0eilTXYrwmo25ZHVKlED+6ymUEvGuLIZ3e2xyK3I1xIhZPJBKpXaRh875doSOHnVdg/aUOg1UuRK1+n599hr1vsdKxZTnJiiLAKA5i3pUR3fhshuDgHLqM97oVv+4vUmfBHgBW4O/XR2+IUuciEXw4nu8jY9sCSYb8YoXMpnMCeYdXMGxEUdpW1aQkwjFR4kzL7D2zvX62JX/43iNCkEjHmhRT4uw0RasUEk/2UCNRWrqT36pUw2S92I+2ff+9IQq7fyb8bq3YqxsFythUdDOwZOqdQi4F6Uui+obQv9pRCt+EC02xryLK2ifbSW4OA9cORHviQn87oe5k5EQdCwmgpDs/8ec5HsCbhCy315Yo04a26jGPNGmLQdOZfJtMdALceGKlLpfBJ8Vn1qLWDiEUmPqsu/lTNx+X74+ZVyTWpajxl5LR79O1CrnkwOUAA5RckAo5poLogBqSt45mAvyHqQte3Ie3qedh1amnNMAlgshwF4SSdg3sjq6dQdCwDiBICuQ66Igth+0RjcQxSwfNbVV3fdihy7ksXBFn1rdkNZNSUkaYhUnFyGdsYhyZ3zPdo3iF+QoYK29IwoLBUNa+cgHW9SpNzXqNuPc274vgmsLvNNz8jsqF9PJKFdhjQdftqyCbNeKO+EYRFESQZkLIjukFf/ZiFO8IRrtB0LLzbu5ggSYcnYewgD0Psx1TLSsKq1r8Q20BLyQ7XXn/1CqjCXCaq/QO4iSwGzf7/I6vd0guOvYGxp0l6Fjr2/QpuohV9Xrikf4JHgGFDP5/6z29vXYnrgJfjb6iWwVckXNoYx4LjcFGFeynIPVOtzeC2R7PdiIUXlAFMFOot1yvj2r1DHXN+rBKsfIQ1bP22bkzi2/WMztqBQiwgoDItAIL0oBRcEqjomKc84mvufn/J40ZP5+YC0Dp+v7Ia6N6Z/LKnhzWZ++N05Vp+vElbRz8F7PzsFJRnzKC6Ldjjfv6IpPxBylEzCMWU7KgPc55MoGXUzEDQQZUZSzHHtE6GPTk6rV1Lm5cyxGy7aGaslO14kjsbhh6XR6aIgjSuB1+fiGEZ3yg1gG11uv6o7X/tWrV6Eo+/cVk1hVWQ3neujsQ7Whct4esbVgG5IrvgCrAesh7pGGtnOQsHovkaSiBHAObmFEpjwh7/kledGZ1iu7A480+0QUgtMAx4m0SSjmfi5fPvtjPPAcvTldpxwIkx/y0kSWWAQsKf7e6VpxIBYznp+TsVwQ2cjIYrmPEZfyhrzv9+Vll1qv7o7LH2iN9erIarCFMDLC7aUM9atiCbGHr4STk9GPeMu85OSDv3e6TqmT7Ry812MoucjFBUZMKgOpVGpH0X45vWa0ADv2hsbY7hVJqWU1eGu5twKmlA+LK9P7IZyRVGvykmmHlXS0bCXYUsTNZ8QiRhi9F4gSmGjEo7KQyWSONWPgilX1aV1AM47Ow01lNbjxiTbzJu7AicSxnd8jwzgSJxDMp9eybQQv8X9xqVUAn1Jz46jrGlVXj6fIwfny8TUjGpUHsQqutYbCHfM/6NNmVpwiD9nnE0BDgI4XkH2GQ7EcfCJeiKChkQ96L8zCFoETB6drlRJp56DMI/EaRHnmgiiBNUKbGZGoTMg4fEGUwQxrSNzxQMychzzrlDneS5EhFJUQZ28ThUkJbPKqKIly/M35NdqH4nS9UiE7/oKy8rkgCiCVTqf3NuJQ2ZDxwHn4gTU07kBY4rCHJux3F2FaLysCILFov8sqY1tgEw5RhHrBktwCY+PEsY16S+F0vVIgyzlYpSa94Dmt+FwjBglAKpXaXiyDnKOH4+j4MTgPS7vmIQLNauflpAAgDLpdWZmfFqxLONPGTffWxQcMmdisnYZO1yoF4n3oyOQFwu+V6RzMBdGOR5sxcgWJM6XuPEQREAzT2OatJiEZfJW0LbCJcfrz8DrPnZPOuq2pJBUBfMj80ZGJMPlcEF5/paam5uuG9ROsCxmj0dZQuWPBkj4drkryi9PEFJtY2fFwEzOfC+98RFx9vINmwhBbPVq05QJHyWyfcKg6XadYZDsHdx9aqz6p9xQ5WC2KYFPD8gmccNlll20og/SUGTNXkK5KB+BSNadxFg6Z6G4m4htgFSllczffhDLf+fwatTRHrYJHXunSAhdF8lOUxPP/UhQ5wWC5ILzdl06n9zLsnsANMljfE/qXGTtX0BegVJ2HOI7wjGdLu6Vh6Zli6pZjuq0fYkVlm7f/iDq1eKWzMpj9Xq/a+byakrMAmWMWo8kvenMOZjKZQYbNE3hBKpX6tZhQuSMPU2vViTc2amVQiv4CzH1WMfa2s97p0eW8iDJEOeBDqHQlYJOtDBD2ax5pU6++36sthPkf9KpRD7fqv8GfUGpzjHPw8gc8OwfvMuydwA/EKjhSKKfnpboxrSvmlOqxEqYspj8KAUbnZxwxVdJRoRdCyDl2ZWzwr3D8iiLlez5LTQngHKSgS660ciBKYJ6wcuIcDAoZvKvMWLrijaV9enJK1XkIoRBg9Ep1CvohTG7GqhT9P7b1Qs2M1R46VYkSqOrp6fmpYekEQSDj+G8ykNOtIXXHw3M79cqbCFpC+STtHBRF9ZpsW3JBeLc3nU7vYdg5QRiIVfDfQovN2Lri6imtuuw3R4tOk5hQQmEIC4WtygOzvaUVZzKZsw0bJ4gCMqa/FGWQ0yvDWTOlvUvVeZhQvAnn4IgHvCVKCb+ON+ybIErIwB5hxtgVa5oz2iNfypGHCcWPfDoH5wq/ftWwboKoIYN7hRlrVxDRR8ONUnYeJhQfYlEhrL2q0ZNzcLV8/NiwbIJ8QAYY5+ETesRzYOq8LrXFKdbRk9PkJpSQF2Ix4cSHmIZckIWqO51O/8Gwa4J8Qgb7u0KenIcEo7CvK7Ww1ITiQTgHOYl66GXPNQfPNGyaoBCQMf+lWAaenIcn32Q5D50mOqGE3IgTKMLYvUD4MXEOFgOZTOZwMweuoFvwvsMS52FC/gjn4AljGnVimAe8vGrVqsQ5WCyIKTbSTIQriO/XzsMkrDchD8Sisdcl3pyDwoOfCG1sWDJBMSDzsKFYBo9ZU+KOR1/BeZhEHibkTvZJ0+tLPTsHdzPsmKCYkMn4jtAiMzeuILMNf0HiPEzIiVgkNj+lSk2Z49k5eIZhwwSlgL6+PpyHzWZ+sqIvvVadOi5xHia0PhGWzgnTlVO89aEQfrvVsF+CUoJo50PNHLmitsVyHlZyVaCE1iecg1RJ5qQpF4TXXhL6imG9BKUG2a+NMHPlineW96ntz1mjtkoiDyue7LRiwtKrmzxFDq6Uj40MyyUoRVDzUCbqEWvK3PH4q12aARLnYWUT3bM4UXpzmTfnYCqV+r1htwSlDJksnIcLzdy54tpHLeehE4MkVP7EIsAWceo8z2nFpxs2SxAH9PX1bSuWQZOZv6zAeXj6zfHttpxQONpE5v3qh71FDsq28xbDXgniBJm4Q8QyyOn5qWvJqD9dZjkPk8jDyiGU/8k3Nam+lKe04heXLVuWOAfjCjHlhpu5dMW7H/WpHc6pUVud7sw0CZUP2c7Bfbw7Bz+W9eRHhqUSxBEyj/8mymCqNaXumDY/cR5WAhE5uN3Za9Tby3N3oRIl0JNKpX5r2ClBnCHz+W3R6O9aU+uO6x8zkYcODJRQ/Ml2DtI1ySNONWyUoBwgimBroUYzuVmRzqxVZ9zapJ1IToyUUHzJjhwcPdVz5OBNhn0SlBNEERwslLPtbn1rv9rv8nrdyipxHpYPUVvglJsaVSrtyTn4gnx8ybBOgnKDKIJLral2x6KVKfXbC2qSk4QyIbZ7B11Rr8PLc0GUwEfCJ4lzsNyRTqcfNnPuCgqg7jakNokxiDGRZYolcMiV9WplnafaAl2pVGoXwyoJyhky398Wrf+ONfXuoBHnkdc06L1lUtQkXkSvSZqRDJrQpBrbcu4INUQRnGzYJEEloK+vbytRBg1m/l1BNtrtT7er38lWAYUAg9HyKqlpUFrEfNinAmQS7jOsTk2d26U8FRoTCD/caNgjQSVBtggHyQqQ2140oGzVrU+1q4Nlr2kzHIphM2G6zeXrhIpAJ1tCjw+AGBAUwlHXNqhJL3Solk5vVgAQJfCsfHzRsEaCSoMogiEWK3hHV+9aHYl4rzAbvfHPGd+sTr+5KaEi0Bm3NKlz72hWV01p1U1wP1id0kfAfiA88K+urq7/MSyRoFIhq8EYwxMJKgwy96tFEWxlWCFBpUOY4TrDGwkqBDLnHwpta1ggQQILwhSDhHJXp0hQDnhZ6Kdm6hMk+DzS6fQfxVx8z+KVBOUGmVuA9ffvZsoTJHCGMMk3xTK4UhjGW8WKBLGAzOc8UfR7mGlOkMAbent7fy6Mc7MwUJ3hpQTxxMui2I+Qzy+YqU2QwD+EiX5IrTr5nC5KIWcGY4LiAj+PzNMi+Rwj9HsK2pqpTJAgGgiffUuYaxdRDCfI51VCU4RmCc0VmpdQYUkEntX+KaHxMifnmyCxTWSektXfMzbY4P8DCz0MPk6msvgAAAAASUVORK5CYII=;" vertex="1" parent="1">
          <mxGeometry x="643" y="220" width="54" height="52.74" as="geometry" />
        </mxCell>
        <mxCell id="WquU7Fkmp-02zfPLn8dz-54" value="" style="sketch=0;html=1;dashed=0;whitespace=wrap;fillColor=#2875E2;strokeColor=#ffffff;points=[[0.005,0.63,0],[0.1,0.2,0],[0.9,0.2,0],[0.5,0,0],[0.995,0.63,0],[0.72,0.99,0],[0.5,1,0],[0.28,0.99,0]];shape=mxgraph.kubernetes.icon;prIcon=deploy" vertex="1" parent="1">
          <mxGeometry x="560" y="341" width="50" height="48" as="geometry" />
        </mxCell>
        <mxCell id="WquU7Fkmp-02zfPLn8dz-57" value="" style="sketch=0;html=1;dashed=0;whitespace=wrap;fillColor=#2875E2;strokeColor=#ffffff;points=[[0.005,0.63,0],[0.1,0.2,0],[0.9,0.2,0],[0.5,0,0],[0.995,0.63,0],[0.72,0.99,0],[0.5,1,0],[0.28,0.99,0]];shape=mxgraph.kubernetes.icon;prIcon=ns" vertex="1" parent="1">
          <mxGeometry x="560" y="402" width="50" height="48" as="geometry" />
        </mxCell>
        <mxCell id="WquU7Fkmp-02zfPLn8dz-58" value="" style="sketch=0;html=1;dashed=0;whitespace=wrap;fillColor=#2875E2;strokeColor=#ffffff;points=[[0.005,0.63,0],[0.1,0.2,0],[0.9,0.2,0],[0.5,0,0],[0.995,0.63,0],[0.72,0.99,0],[0.5,1,0],[0.28,0.99,0]];shape=mxgraph.kubernetes.icon;prIcon=cronjob" vertex="1" parent="1">
          <mxGeometry x="560" y="462" width="50" height="48" as="geometry" />
        </mxCell>
        <mxCell id="WquU7Fkmp-02zfPLn8dz-59" value="" style="sketch=0;aspect=fixed;html=1;points=[];align=center;image;fontSize=12;image=img/lib/mscae/Kubernetes_Services.svg;" vertex="1" parent="1">
          <mxGeometry x="560" y="290" width="50" height="37" as="geometry" />
        </mxCell>
        <mxCell id="WquU7Fkmp-02zfPLn8dz-60" value="&#xa;&#xa;&lt;div style=&quot;color: rgb(212, 212, 212); background-color: rgb(30, 30, 30); font-family: consolas, &amp;quot;courier new&amp;quot;, monospace; font-weight: normal; font-size: 14px; line-height: 19px;&quot;&gt;&lt;div&gt;&lt;span style=&quot;color: #ce9178&quot;&gt;demo&lt;/span&gt;&lt;/div&gt;&lt;/div&gt;&#xa;&#xa;" style="text;html=1;strokeColor=none;fillColor=none;align=center;verticalAlign=middle;whiteSpace=wrap;rounded=0;" vertex="1" parent="1">
          <mxGeometry x="670" y="471" width="60" height="30" as="geometry" />
        </mxCell>
        <mxCell id="WquU7Fkmp-02zfPLn8dz-61" value="cronjob" style="text;html=1;strokeColor=none;fillColor=none;align=center;verticalAlign=middle;whiteSpace=wrap;rounded=0;" vertex="1" parent="1">
          <mxGeometry x="620" y="471" width="60" height="30" as="geometry" />
        </mxCell>
        <mxCell id="WquU7Fkmp-02zfPLn8dz-62" value="namespace&amp;nbsp;&lt;span style=&quot;color: rgb(206 , 145 , 120) ; background-color: rgb(30 , 30 , 30) ; font-family: &amp;#34;consolas&amp;#34; , &amp;#34;courier new&amp;#34; , monospace ; font-size: 14px&quot;&gt;alex-verboonen&lt;/span&gt;" style="text;html=1;strokeColor=none;fillColor=none;align=center;verticalAlign=middle;whiteSpace=wrap;rounded=0;" vertex="1" parent="1">
          <mxGeometry x="610" y="411" width="180" height="30" as="geometry" />
        </mxCell>
        <mxCell id="WquU7Fkmp-02zfPLn8dz-63" value="deploy&amp;nbsp;&lt;span style=&quot;color: rgb(206 , 145 , 120) ; background-color: rgb(30 , 30 , 30) ; font-family: &amp;#34;consolas&amp;#34; , &amp;#34;courier new&amp;#34; , monospace ; font-size: 14px&quot;&gt;ghost:alpine&lt;/span&gt;" style="text;html=1;strokeColor=none;fillColor=none;align=center;verticalAlign=middle;whiteSpace=wrap;rounded=0;" vertex="1" parent="1">
          <mxGeometry x="590" y="350" width="180" height="30" as="geometry" />
        </mxCell>
        <mxCell id="WquU7Fkmp-02zfPLn8dz-64" value="&lt;span style=&quot;background-color: rgb(248 , 249 , 250)&quot;&gt;service&amp;nbsp;&lt;/span&gt;&lt;span style=&quot;color: rgb(206 , 145 , 120) ; background-color: rgb(30 , 30 , 30) ; font-family: &amp;#34;consolas&amp;#34; , &amp;#34;courier new&amp;#34; , monospace ; font-size: 14px&quot;&gt;mi-servicio&lt;/span&gt;&amp;nbsp;&lt;span style=&quot;color: rgba(0 , 0 , 0 , 0) ; font-family: monospace ; font-size: 0px&quot;&gt;%3CmxGraphModel%3E%3Croot%3E%3CmxCell%20id%3D%220%22%2F%3E%3CmxCell%20id%3D%221%22%20parent%3D%220%22%2F%3E%3CmxCell%20id%3D%222%22%20value%3D%22deploy%26amp%3Bnbsp%3B%26lt%3Bspan%20style%3D%26quot%3Bcolor%3A%20rgb(206%20%2C%20145%20%2C%20120)%20%3B%20background-color%3A%20rgb(30%20%2C%2030%20%2C%2030)%20%3B%20font-family%3A%20%26amp%3B%2334%3Bconsolas%26amp%3B%2334%3B%20%2C%20%26amp%3B%2334%3Bcourier%20new%26amp%3B%2334%3B%20%2C%20monospace%20%3B%20font-size%3A%2014px%26quot%3B%26gt%3Bghost%3Aalpine%26lt%3B%2Fspan%26gt%3B%22%20style%3D%22text%3Bhtml%3D1%3BstrokeColor%3Dnone%3BfillColor%3Dnone%3Balign%3Dcenter%3BverticalAlign%3Dmiddle%3BwhiteSpace%3Dwrap%3Brounded%3D0%3B%22%20vertex%3D%221%22%20parent%3D%221%22%3E%3CmxGeometry%20x%3D%22590%22%20y%3D%22350%22%20width%3D%22180%22%20height%3D%2230%22%20as%3D%22geometry%22%2F%3E%3C%2FmxCell%3E%3C%2Froot%3E%3C%2FmxGraphModel%3E&lt;/span&gt;" style="text;html=1;strokeColor=none;fillColor=none;align=center;verticalAlign=middle;whiteSpace=wrap;rounded=0;" vertex="1" parent="1">
          <mxGeometry x="590" y="290" width="180" height="30" as="geometry" />
        </mxCell>
      </root>
    </mxGraphModel>
  </diagram>
</mxfile>
